<?xml version="1.0" encoding="UTF-8" standalone="no"?>
<svg
   xmlns:dc="http://purl.org/dc/elements/1.1/"
   xmlns:cc="http://creativecommons.org/ns#"
   xmlns:rdf="http://www.w3.org/1999/02/22-rdf-syntax-ns#"
   xmlns:svg="http://www.w3.org/2000/svg"
   xmlns="http://www.w3.org/2000/svg"
   xmlns:sodipodi="http://sodipodi.sourceforge.net/DTD/sodipodi-0.dtd"
   xmlns:inkscape="http://www.inkscape.org/namespaces/inkscape"
   viewBox="0 0 2752.766 1537.631"
   version="1.0"
   height="1300"
   width="1400"
   id="svg1926"
   sodipodi:version="0.32"
   inkscape:version="0.48.1 r9760"
   sodipodi:docname="zamap.svg"
   inkscape:output_extension="org.inkscape.output.svg.inkscape"
   inkscape:export-filename="C:\Documents and Settings\Pedro\Escritorio\Mapas africa\Location Mauritania AU Africa.svg.png"
   inkscape:export-xdpi="90"
   inkscape:export-ydpi="90">
  <sodipodi:namedview
     inkscape:window-height="1152"
     inkscape:window-width="1920"
     inkscape:pageshadow="2"
     inkscape:pageopacity="0.0"
     guidetolerance="10.0"
     gridtolerance="10.0"
     objecttolerance="10.0"
     borderopacity="1.0"
     bordercolor="#666666"
     pagecolor="#ffffff"
     id="base"
     showgrid="false"
     inkscape:zoom="4.497939"
     inkscape:cx="905.36463"
     inkscape:cy="184.14479"
     inkscape:window-x="0"
     inkscape:window-y="0"
     inkscape:current-layer="svg1926"
     showguides="true"
     inkscape:guide-bbox="true"
     inkscape:window-maximized="0" />
  <metadata
     id="metadata24111">
    <rdf:RDF>
      <cc:Work
         rdf:about="">
        <dc:format>image/svg+xml</dc:format>
        <dc:type
           rdf:resource="http://purl.org/dc/dcmitype/StillImage" />
        <cc:license
           rdf:resource="http://web.resource.org/cc/PublicDomain" />
        <dc:title></dc:title>
      </cc:Work>
      <cc:License
         rdf:about="http://web.resource.org/cc/PublicDomain">
        <cc:permits
           rdf:resource="http://web.resource.org/cc/Reproduction" />
        <cc:permits
           rdf:resource="http://web.resource.org/cc/Distribution" />
        <cc:permits
           rdf:resource="http://web.resource.org/cc/DerivativeWorks" />
      </cc:License>
    </rdf:RDF>
  </metadata>
  <defs
     id="defs1930">
    <inkscape:perspective
       sodipodi:type="inkscape:persp3d"
       inkscape:vp_x="0 : 238.3638 : 1"
       inkscape:vp_y="0 : 1000 : 0"
       inkscape:vp_z="939.74725 : 238.3638 : 1"
       inkscape:persp3d-origin="469.87363 : 158.9092 : 1"
       id="perspective2477" />
    <clipPath
       clipPathUnits="userSpaceOnUse"
       id="clipPath6575">
      <rect
         y="1480.6609"
         x="1543.1847"
         height="406.17709"
         width="473.99771"
         id="rect6577"
         style="fill:#d7e3f4;fill-opacity:1;stroke:none" />
    </clipPath>
  </defs>
  <style
     type="text/css"
     id="style_css_sheet">
/*
 * Below are Cascading Style Sheet (CSS) definitions in use in this file,
 * which allow easily changing how countries are displayed.
 *
 */

/*
 * circles around small countries
 *
 * Change opacity to 1 to display all circles.
 *
 */
.circlexx
{
   opacity:0;
   fill:#b9b9b9;
   fill-opacity:1;
   stroke:black;
   stroke-width:0.5;
   stroke-miterlimit:3.97446823;
   stroke-dasharray:none;
   stroke-opacity:1;
}

/*
 * Smaller circles around French DOMs and Chinese SARs
 *
 * Change opacity to 1 to display all subnational circles.
 *
 */
.subxx
{
   opacity:0;
   stroke-width:0.3;
}

/*
 * land
 */
.landxx
{
   fill: #b9b9b9;
   fill-opacity: 1;
   stroke:white;
   stroke-opacity: 1;
   stroke-width:0.5;
   stroke-miterlimit: 3.97446823;
   stroke-dasharray: none;
}

/*
 * Styles for coastlines of islands with no borders
 */
.coastxx
{
   stroke-width: 0.3;
}

/*
 * Additional style rules
 *
 * The following are examples of colouring countries.  You can substitute these with your own styles to colour the countries on the map.
 *
 * Color a few countries:
 *
 * .gb, .au, .nc
 * {
 *    fill:       #ff0000;
 * }
 *
 * Color a few small country circles (and the countries):
 *
 * .ms, .ky
 * {
 *    opacity:    1;
 *    fill:       #ff0000;
 * }
 *
 */
/*
 * Antarctica
 */

.aq
{
   fill:#e6e6e6;
}

/*
 * Sea
 */

.ocean
{
   opacity: 1;
   color: #000000;
   fill:white;
   fill-opacity:1;
   fill-rule:nonzero;
   stroke:#000000;
   stroke-width:0.5;
   stroke-linecap:butt;
   stroke-linejoin:miter;
   marker:none;
   marker-start:none;
   marker-mid:none;
   marker-end:none;
   stroke-miterlimit:1;
   stroke-dasharray:none;
   stroke-dashoffset:0;
   stroke-opacity:1;
   visibility:visible;
   display:inline;
   overflow:visible;
}

.lake
{
   fill:white;
   fill-opacity:1;
   stroke:none;
   stroke-opacity: 1;
   stroke-width:0.3;
   stroke-miterlimit: 3.97446823;
   stroke-dasharray: none;
}
</style>
  <rect
     style="opacity:1;fill:#eaf6f9;fill-opacity:1;stroke:none;stroke-width:3.14175868000000014;stroke-linecap:round;stroke-linejoin:miter;stroke-miterlimit:4;stroke-opacity:1;stroke-dasharray:none"
     id="rect5788"
     width="473.99771"
     height="406.17709"
     x="1543.1847"
     y="1480.6609"
     inkscape:export-filename="/Users/craigmj/proj/decc/craigmj/twenty-fifty/public/assets/images/za.png"
     inkscape:export-xdpi="283.62814"
     inkscape:export-ydpi="283.62814" />
  <path
     class="landxx za"
     d="M 1575.9716,1687.8432 C 1578.5966,1685.3687 1582.5901,1685.8727 1583.0976,1681.9737 C 1583.5281,1678.6767 1585.8381,1672.9542 1589.3346,1671.8377 C 1593.9406,1670.3642 1593.3631,1676.8042 1596.5131,1677.7107 C 1601.9381,1679.2682 1596.4011,1684.6862 1599.0401,1687.9937 C 1603.6671,1693.7932 1610.8071,1694.3252 1617.6216,1696.4917 C 1623.8271,1698.4657 1628.8111,1695.6867 1634.8801,1695.8372 C 1640.3226,1695.9772 1642.4296,1699.0607 1648.0366,1697.4017 C 1644.6696,1693.5832 1648.8486,1692.9777 1651.1061,1692.0922 C 1654.2211,1690.8742 1654.4521,1686.8422 1658.3931,1685.6942 C 1660.9341,1684.9522 1666.1981,1684.5917 1666.5096,1681.0707 L 1668.9281,1572.1682 C 1671.9101,1576.3682 1677.0481,1578.3562 1679.8236,1582.7312 C 1682.9876,1587.7257 1684.935,1594.368 1686.9965,1599.9015 C 1689.0755,1605.4875 1690.9186,1611.5572 1688.2061,1617.3147 C 1684.7341,1624.6822 1682.1931,1628.7107 1685.5881,1636.9217 C 1691.5906,1629.9917 1706.4621,1640.5232 1712.9861,1634.1847 C 1714.0676,1633.1347 1713.2381,1630.4467 1714.8271,1629.9882 C 1716.6051,1629.4737 1718.1556,1629.8412 1719.8881,1628.8507 C 1724.4136,1626.2677 1725.3586,1620.3352 1730.0591,1617.5387 C 1735.2286,1614.4657 1738.5361,1611.0847 1739.7226,1604.9177 C 1740.7551,1599.5487 1740.5801,1595.0862 1745.0041,1591.0752 C 1748.8576,1587.5822 1753.8451,1586.8787 1758.5491,1588.9997 C 1762.4236,1590.7497 1768.0131,1598.9817 1771.7021,1598.8802 C 1779.9866,1598.6597 1789.7166,1608.6452 1797.5636,1602.4397 C 1801.0776,1599.6607 1806.3311,1603.5247 1810.7096,1600.2662 C 1815.3856,1596.7837 1817.0866,1590.9667 1819.0921,1585.7132 C 1820.1561,1582.9307 1821.1011,1580.0642 1821.5631,1577.1102 C 1822.3191,1572.3082 1820.0126,1572.6617 1824.8846,1571.2792 C 1827.7126,1570.4777 1835.9831,1569.0707 1837.5371,1566.4177 C 1840.3126,1561.6752 1845.8111,1559.5472 1848.1246,1554.5317 C 1850.6481,1549.0682 1849.5701,1543.4227 1853.3046,1538.2742 C 1856.5001,1533.8677 1860.0876,1533.4757 1864.2246,1530.5917 C 1868.4631,1527.6342 1873.8706,1523.0807 1877.1046,1519.0032 C 1879.8591,1515.5277 1881.6896,1510.1972 1885.8336,1508.0902 C 1889.9811,1505.9832 1894.8811,1505.7907 1899.2211,1504.2087 C 1903.3791,1502.6932 1903.2601,1500.8557 1905.2936,1497.6392 C 1907.0156,1494.9092 1911.7126,1494.0237 1914.5791,1493.4252 C 1926.2726,1490.9752 1933.4126,1498.6717 1944.7876,1498.7522 C 1954.9131,1498.8257 1964.1181,1494.9197 1967.4466,1507.3482 C 1969.3016,1514.2817 1970.8941,1521.3517 1971.0796,1528.5582 C 1971.2511,1535.1172 1975.2621,1540.7487 1977.6351,1546.6392 C 1982.7206,1559.2532 1981.4795,1571.233 1980.8124,1584.5477 C 1980.5562,1589.6689 1980.8418,1595.9409 1979.0001,1601.3512 C 1978.1013,1603.9923 1977.7016,1603.8292 1978.6494,1611.4319 C 1979.0778,1611.6279 1975.5799,1607.6666 1972.0841,1606.4682 C 1968.7703,1605.3321 1965.8226,1605.7605 1963.1262,1605.7899 C 1960.8995,1610.1425 1957.508,1609.2472 1954.9656,1614.7625 C 1951.9024,1621.4062 1949.1528,1631.6206 1948.2022,1630.8828 C 1953.1379,1635.3327 1954.8137,1638.8929 1957.8706,1642.3957 C 1962.8476,1648.0993 1970.0142,1651.1296 1975.4553,1645.7319 C 1976.9421,1644.257 1974.7133,1643.4597 1980.1166,1635.9067 L 1984.6372,1636.0271 L 2000.5048,1636.5759 C 1997.5053,1649.8444 1993.7106,1661.5477 1990.1651,1674.6902 C 1988.3311,1681.4907 1984.7436,1695.3052 1975.3811,1694.6367 C 1976.8616,1697.9652 1972.5111,1697.8462 1970.5091,1698.2487 C 1967.9996,1698.7562 1965.8681,1701.9097 1964.2756,1703.6807 C 1958.6441,1709.9527 1952.8866,1717.4077 1950.3001,1725.3982 C 1948.8476,1729.8852 1944.8786,1732.7202 1942.6211,1736.7382 C 1939.1456,1742.9227 1935.5091,1749.0512 1931.4421,1754.8647 C 1924.1201,1765.3367 1916.2801,1772.3997 1906.5256,1780.4392 C 1898.3846,1787.1522 1893.5826,1796.8997 1885.4521,1803.5847 C 1875.1061,1812.0897 1864.9806,1820.8677 1854.3161,1828.9737 C 1845.9336,1835.3402 1836.3261,1842.9632 1825.5321,1844.4192 C 1820.3451,1845.1227 1815.2071,1842.2702 1810.0796,1843.8382 C 1806.3661,1844.9722 1801.1931,1849.4522 1806.2996,1852.6582 C 1800.2271,1855.3567 1793.4896,1847.6182 1787.7986,1851.5207 C 1781.1591,1856.0742 1779.7486,1858.7587 1770.6381,1855.2867 C 1763.7991,1852.6827 1755.0351,1849.9037 1747.8146,1852.6582 C 1744.5806,1853.8937 1746.2081,1855.9762 1741.3081,1854.2227 C 1738.4241,1853.1902 1733.3911,1854.9752 1731.9246,1851.6432 C 1731.8301,1852.0632 1731.8301,1852.4832 1731.9246,1852.9032 C 1724.5256,1851.7027 1712.6781,1855.1117 1708.8841,1861.9997 C 1705.5766,1868.0127 1689.0391,1861.8037 1683.7786,1864.0717 C 1680.6216,1865.4367 1677.2931,1864.5267 1674.3321,1865.9267 C 1670.7446,1867.6207 1666.7651,1871.0612 1663.6116,1873.5112 C 1659.6321,1876.6122 1661.2071,1875.9962 1656.6046,1874.8132 C 1654.6061,1874.3022 1652.3521,1875.4467 1650.5671,1873.9802 C 1648.5336,1872.3037 1646.6121,1870.3122 1644.0046,1869.5317 C 1648.5861,1863.2457 1634.5126,1863.0042 1631.4046,1862.4617 C 1633.3156,1857.5652 1631.3206,1853.1902 1625.4931,1854.2647 C 1621.5381,1854.9962 1622.9801,1859.6792 1623.0746,1862.4617 C 1615.8856,1859.6652 1621.5731,1851.1217 1622.2696,1846.7607 C 1622.8751,1842.9632 1620.8031,1839.0467 1618.9026,1835.9282 C 1617.8071,1834.1327 1608.8506,1821.7252 1614.7796,1827.4617 C 1612.2456,1824.9172 1613.3481,1822.1102 1609.5716,1822.1382 C 1606.3761,1822.1592 1609.8866,1814.1862 1610.2296,1813.0767 C 1618.3811,1817.8612 1620.4741,1808.4987 1620.6211,1802.2232 C 1620.8766,1791.4817 1617.9156,1782.4167 1612.3576,1773.2082 C 1604.0871,1759.5057 1596.7651,1745.9362 1592.0191,1730.5432 C 1589.8036,1723.3542 1588.3791,1715.9377 1585.7156,1708.8852 C 1583.0556,1701.8222 1576.6436,1695.5397 1575.9716,1687.8432"
     id="path7613"
     style="fill:#f3f3f0;fill-opacity:1;stroke:#ffffff;stroke-width:1.75000000000000000;stroke-miterlimit:3.97446822999999982;stroke-dasharray:none;stroke-opacity:1"
     inkscape:export-filename="/Users/craigmj/proj/decc/craigmj/twenty-fifty/public/assets/images/za.png"
     inkscape:export-xdpi="283.62814"
     inkscape:export-ydpi="283.62814" />
  <g
     id="g6561"
     style="fill:#f8f9f6;fill-opacity:1"
     clip-path="url(#clipPath6575)"
     inkscape:export-filename="/Users/craigmj/proj/decc/craigmj/twenty-fifty/public/assets/images/za.png"
     inkscape:export-xdpi="283.62814"
     inkscape:export-ydpi="283.62814">
    <path
       style="fill:#f8f9f6;fill-opacity:1;stroke:#ffffff;stroke-width:1.75000000000000000;stroke-miterlimit:3.97446822999999982;stroke-dasharray:none;stroke-opacity:1;opacity:1"
       id="path7227"
       d="M 1668.9351,1572.1682 L 1671.922,1488.2389 L 1695.7745,1488.269 L 1699.1317,1376.8157 C 1707.5898,1374.771 1729.0826,1373.5089 1741.3277,1369.2676 C 1745.1364,1367.9488 1754.4632,1365.9685 1758.2852,1368.1595 C 1763.4617,1371.124 1764.4571,1377.2952 1766.9736,1382.1532 C 1773.6922,1376.8423 1778.9856,1365.9713 1786.9299,1365.7865 C 1789.9021,1365.7179 1789.5962,1367.456 1791.7697,1367.757 C 1794.5837,1368.1455 1796.2343,1364.2843 1798.3399,1363.0278 C 1805.153,1358.9636 1812.2685,1359.5362 1811.0617,1362.0009 C 1810.7208,1362.6967 1811.0631,1366.5817 1811.3921,1367.4112 C 1813.2121,1372.0032 1815.7692,1376.3845 1818.7701,1380.2947 C 1821.7101,1384.1251 1824.0768,1386.1775 1826.2741,1392.7722 C 1827.8435,1397.4825 1828.4336,1398.4814 1829.7881,1402.9544 C 1832.6336,1412.3449 1839.4691,1420.3683 1848.0126,1424.7699 C 1857.0503,1429.427 1865.3355,1428.4736 1862.2401,1442.8712 C 1870.4917,1440.9434 1876.9527,1441.9094 1873.3841,1452.8707 C 1872.1563,1456.6423 1872.5721,1459.5102 1874.7421,1462.7932 C 1877.0906,1466.3562 1878.7286,1474.8409 1882.4939,1476.0099 C 1890.0476,1478.3542 1896.5905,1477.9608 1904.6587,1480.7111 C 1910.65,1482.7537 1905.4651,1485.5691 1907.3131,1488.6456 C 1908.7383,1491.0179 1914.0632,1490.2633 1914.9053,1493.666 C 1905.4896,1494.8322 1906.9946,1496.8307 1903.5156,1501.6957 C 1899.6292,1507.1305 1889.0095,1504.4257 1884.4098,1509.3817 C 1880.2637,1513.8491 1876.7896,1521.3216 1871.1945,1525.7281 C 1870.5736,1526.2167 1868.4043,1528.2334 1866.1286,1529.8322 C 1862.3409,1532.4929 1858.1745,1533.4638 1855.2926,1536.7272 C 1851.4503,1541.0784 1850.7055,1542.3517 1850.0412,1548.8904 C 1849.225,1556.9201 1844.5371,1558.7408 1838.8419,1565.528 C 1835.4952,1569.5159 1829.9722,1570.6198 1824.3617,1571.5333 C 1820.3164,1572.192 1822.7132,1573.7572 1821.9397,1577.6772 C 1820.9212,1582.8327 1818.4187,1587.5052 1816.7527,1592.4472 C 1814.2712,1599.7832 1810.3631,1602.3424 1802.8661,1601.6914 C 1796.0621,1601.1034 1796.8573,1605.9852 1788.1024,1604.0623 C 1784.6276,1603.2986 1776.3074,1599.4129 1773.3415,1599.2127 C 1768.9987,1598.9201 1766.1693,1596.2181 1763.6717,1593.0912 C 1759.9547,1588.4362 1749.8173,1585.0251 1744.5757,1591.7864 C 1739.7849,1597.9653 1741.8996,1604.861 1737.4819,1611.2156 C 1735.3028,1614.3502 1732.1997,1616.5034 1729.2492,1618.5264 C 1725.6022,1621.0219 1724.541,1625.0497 1721.4435,1627.9407 C 1719.137,1630.0967 1717.1602,1629.1608 1714.5807,1630.2108 C 1713.7232,1630.9458 1713.6406,1631.8012 1713.8366,1633.0227 C 1712.8321,1635.8122 1708.6237,1636.5871 1706.1842,1636.4296 C 1702.3027,1636.1741 1700.1299,1635.2109 1696.3863,1634.9155 C 1692.9878,1634.6474 1689.9554,1633.3125 1685.6021,1636.9182 C 1679.2594,1624.8187 1692.5062,1619.3426 1687.8736,1602.8982 C 1686.1166,1596.6591 1683.6281,1589.7382 1680.4151,1584.1032 C 1677.6081,1579.1822 1672.1761,1576.7322 1668.9351,1572.1682"
       class="landxx bw" />
    <g
       style="fill:#f8f9f6;fill-opacity:1;stroke:#ffffff;stroke-width:0.30000000999999998;stroke-miterlimit:3.97446822999999982;stroke-dasharray:none;stroke-opacity:1;opacity:1"
       id="g7323"
       class="landxx coastxx mz"
       transform="matrix(3.4999993,0,0,3.4999993,-3406.2011,-1619.0996)">
      <path
         style="fill:#f8f9f6;fill-opacity:1"
         id="path7325"
         d="M 1566.1089,886.0907 C 1566.3639,885.3737 1566.5079,884.6137 1566.4689,883.8507 C 1566.1569,884.5367 1565.8149,885.3267 1566.1089,886.0907" />
      <path
         style="fill:#f8f9f6;fill-opacity:1"
         id="path7327"
         d="M 1573.6689,860.9607 C 1574.2729,860.3867 1574.1299,860.1467 1573.2379,860.2407 C 1573.3819,860.4807 1573.5259,860.7207 1573.6689,860.9607" />
      <path
         style="fill:#f8f9f6;fill-opacity:1;stroke:#ffffff;stroke-width:0.50000000000000000;stroke-miterlimit:3.97446822999999982;stroke-dasharray:none;stroke-opacity:1"
         id="path7329"
         d="M 1528.5989,827.3307 C 1534.1359,825.2497 1539.6929,823.2167 1545.2629,821.2267 C 1546.5079,820.7817 1547.6806,820.18916 1548.9146,819.71216 C 1549.3326,819.55116 1550.3912,818.86415 1550.8562,819.01015 L 1555.0189,823.6617 C 1555.0599,822.7287 1557.0629,823.0547 1558.0049,822.7887 C 1558.8149,822.5607 1560.0349,821.8017 1560.6999,822.6637 C 1561.9289,824.2577 1561.9359,828.1197 1561.2969,829.8867 C 1560.4859,832.1257 1558.5999,834.1387 1559.7969,836.4427 C 1560.0819,836.9897 1559.9179,837.6417 1560.2489,838.1617 C 1560.6229,838.7497 1561.2869,839.0697 1561.6589,839.6567 C 1562.3879,840.8057 1563.5109,841.8807 1564.5449,842.7637 C 1565.5309,843.6057 1565.4779,843.7597 1564.8019,844.8657 C 1564.0799,846.0467 1566.4199,846.4917 1566.5739,844.9017 C 1566.7219,843.3557 1566.2759,841.9887 1565.3879,840.7327 C 1566.7939,839.7087 1566.0629,837.5857 1568.1289,837.1567 C 1570.9289,836.5757 1571.1769,835.3537 1571.1859,832.5307 C 1571.1889,831.5037 1571.0079,830.4557 1571.0689,829.4307 C 1571.1689,827.7607 1572.0459,825.9167 1571.3289,824.2787 C 1570.6109,822.6377 1569.1119,821.0917 1568.1479,819.5637 C 1567.2519,818.1427 1566.3759,816.6137 1565.2409,815.3627 C 1564.4069,814.4447 1564.7212,815.28164 1563.9712,814.44164 C 1563.7487,813.723 1564.1309,812.3132 1563.6725,810.91987 C 1563.0719,809.09456 1564.1448,807.9911 1563.9059,807.18212 C 1562.5206,802.50467 1563.358,803.64973 1563.292,803.06147 C 1563.8334,801.83029 1565.6378,802.06121 1565.1994,797.6999 C 1566.6998,797.84069 1568.0625,798.17195 1569.8179,797.6637 C 1570.8105,797.37631 1571.7449,796.1537 1572.8309,796.8567 C 1573.5819,797.3427 1573.9459,798.2717 1574.7439,798.6967 C 1575.3549,799.0227 1577.3839,799.1347 1578.0569,798.9617 C 1579.1759,798.6737 1579.9819,796.7937 1581.2449,798.1647 C 1583.5889,800.7087 1586.4039,797.6957 1587.5389,795.8267 C 1588.1649,794.7947 1589.2809,794.7667 1590.2579,795.3857 C 1591.8499,796.3947 1592.2349,796.3857 1593.7449,795.3257 C 1595.0069,794.4407 1595.9969,793.8177 1597.6419,794.1407 C 1598.5879,794.3277 1600.4149,792.5127 1601.2979,792.1107 C 1603.0399,791.3187 1604.4949,790.2047 1605.9969,789.0457 C 1607.8309,787.6287 1609.0259,789.9997 1607.4349,790.7607 C 1607.6779,790.8747 1607.9169,790.9947 1608.1549,791.1207 C 1607.4269,792.0587 1607.8399,793.1147 1607.4349,794.1407 C 1607.2179,794.6927 1605.8269,795.4077 1606.6469,795.9907 C 1607.3269,796.4727 1607.1679,799.0517 1607.2649,800.0497 C 1607.3369,800.7977 1607.3959,801.5597 1607.3289,802.3107 C 1607.2289,803.4497 1606.8739,803.1637 1607.1919,804.1727 C 1607.2649,804.5487 1607.2389,804.9187 1607.1129,805.2797 C 1606.9649,805.9777 1607.4039,806.1897 1607.5839,806.7937 C 1607.8479,807.6717 1607.5159,808.9317 1606.9249,809.6207 C 1608.9289,809.9057 1606.3209,814.3047 1607.1059,814.5557 C 1608.4769,814.9947 1607.1379,819.5717 1607.5749,820.6407 C 1609.0849,819.7457 1607.3559,822.6647 1607.7959,823.3707 C 1607.9169,822.0977 1609.1999,822.3167 1608.9799,823.5787 C 1608.7419,824.9467 1609.0699,825.9167 1607.6459,826.6907 C 1607.9049,826.8927 1608.1709,827.0827 1608.4469,827.2607 C 1606.7989,826.8677 1608.2199,827.4687 1607.7469,828.0357 C 1607.4479,828.3937 1606.9829,828.5287 1606.7869,828.9907 C 1608.3779,828.4247 1607.0039,830.9487 1606.7669,831.4477 C 1605.9699,833.1327 1604.2729,834.0667 1603.4539,835.7407 C 1602.6409,837.4027 1601.3129,838.3687 1600.4089,839.9437 C 1599.7169,841.1517 1595.0249,842.7827 1595.1939,844.0967 C 1595.2719,844.7047 1591.6509,845.3267 1590.9459,845.7607 C 1590.3219,846.1447 1589.6149,846.4517 1588.9129,846.6567 C 1587.7799,846.9877 1587.9749,846.5547 1587.1519,847.3157 C 1585.9679,848.4107 1584.3089,848.9287 1582.9009,849.6607 C 1581.4999,850.3897 1579.2679,853.7977 1577.6959,852.4607 C 1580.6319,855.6817 1573.5019,856.9187 1574.1659,860.1707 C 1573.5599,860.2537 1573.1529,859.8577 1573.0159,859.3007 C 1573.1579,860.4437 1572.0719,861.8927 1572.2259,860.3107 C 1570.8549,861.4997 1569.1959,862.3157 1568.0809,863.7837 C 1567.0939,865.0827 1566.1959,866.3157 1565.0079,867.4497 C 1564.5269,867.9087 1562.6149,869.9257 1561.9279,869.0907 C 1561.4849,868.5527 1560.9189,866.7077 1559.9159,867.2917 C 1561.6449,867.1877 1561.0409,869.3637 1561.3819,869.8917 C 1561.7019,870.3887 1561.6849,871.1957 1561.4449,871.7177 C 1561.3359,871.9927 1561.1359,872.1517 1560.8459,872.1917 C 1561.0679,872.6057 1561.1419,873.0457 1561.0679,873.5117 C 1560.8799,875.7847 1561.6269,875.1567 1562.7969,876.6527 C 1563.4529,877.4917 1563.6419,878.4847 1563.6279,879.5247 C 1563.6219,879.9277 1563.3009,883.0627 1563.8769,881.1227 C 1563.4389,882.8157 1564.5649,884.6457 1564.7359,886.3727 C 1564.8399,887.4077 1565.2099,888.4907 1565.0389,889.5357 C 1564.8939,890.4167 1564.5129,891.3957 1565.4569,891.9937 C 1565.6259,890.8847 1565.5779,889.8857 1566.3259,888.9637 C 1566.3079,889.3027 1566.3289,891.7317 1566.6859,889.6927 C 1566.4849,890.8637 1566.1919,892.0217 1566.0879,893.2087 C 1565.9939,894.2737 1566.7489,895.2207 1566.6129,896.2567 C 1566.2409,899.0837 1564.2079,901.8097 1564.6659,904.8127 C 1564.4039,903.1707 1565.6079,904.8627 1565.6759,903.4427 C 1566.7589,905.2687 1564.6579,907.9987 1563.5339,909.2867 C 1561.6759,911.4157 1558.8569,912.3887 1556.2619,913.3037 C 1553.3249,914.3397 1550.3659,915.4177 1547.7459,917.1227 C 1546.5629,917.8927 1545.3269,918.5697 1544.6689,919.8857 C 1544.1039,921.0147 1543.8179,922.3277 1542.3459,922.5217 C 1543.3279,922.5107 1544.8979,926.0117 1545.7259,923.8917 C 1545.5499,925.6867 1546.4889,930.33598 1544.6349,930.20843 L 1540.1599,930.0352 C 1540.2266,928.56341 1539.3125,926.89789 1539.5467,925.7577 C 1539.7435,924.79933 1539.2777,923.87246 1538.628,923.01516 C 1538.1498,922.38408 1538.258,920.8575 1538.7593,919.6531 C 1539.0443,918.96836 1539.0059,916.5137 1539.0359,915.8097 C 1539.1079,914.0857 1539.0951,912.3627 1539.2251,910.6427 C 1539.3421,909.0907 1538.9859,908.0557 1538.7359,906.5737 C 1538.3599,904.3537 1536.8479,902.5387 1536.3869,900.3777 C 1536.1649,899.3347 1536.3313,898.2347 1536.1483,897.1587 C 1535.8943,895.6637 1535.5929,894.2267 1535.1859,892.7707 C 1534.9219,891.8267 1534.4991,892.10678 1535.0295,891.40978 C 1535.5598,890.99096 1537.0434,889.05832 1537.6689,888.4197 C 1538.6011,887.46796 1542.9349,881.3737 1544.0749,882.2027 C 1542.9259,880.7197 1544.0759,879.8607 1544.4349,878.3827 C 1544.6559,877.4737 1543.7749,876.2047 1544.7739,875.6087 C 1546.1639,874.7797 1546.5269,873.6507 1547.2939,872.2217 C 1547.6219,871.6107 1547.8005,871.09349 1548.0375,870.43349 C 1548.4135,869.39249 1548.1249,868.5927 1548.1759,867.5827 C 1547.9359,867.6787 1547.6969,867.7757 1547.4559,867.8727 C 1546.929,866.82476 1546.5563,865.8829 1546.7621,865.30161 C 1547.0118,864.59676 1547.9073,864.01372 1547.5701,863.0691 C 1547.281,862.25901 1546.1136,862.54746 1546.4425,861.24569 C 1546.6881,860.27369 1548.3908,860.1154 1548.2529,858.9317 C 1548.0158,856.89659 1549.282,857.65959 1549.1579,856.3257 C 1549.0553,855.22355 1548.4359,854.17509 1548.6459,853.06409 C 1548.7929,852.28309 1549.3055,851.41595 1549.1121,850.6367 C 1548.727,849.08497 1548.8562,848.03396 1548.8907,846.37028 C 1548.9019,845.82987 1548.6117,845.43768 1548.4617,844.91168 C 1548.2437,844.14868 1548.9879,842.8517 1549.1159,842.0927 C 1548.0606,842.38989 1547.5251,842.37992 1546.9639,841.3417 C 1546.4332,840.35981 1543.4029,840.2769 1542.6139,839.8227 C 1540.1839,838.4238 1537.861,836.96575 1535.248,836.2267 C 1534.4114,835.99008 1531.7953,836.06623 1530.8815,835.84851 C 1529.4021,835.49604 1529.9969,833.0947 1529.8599,831.9927 C 1529.6649,830.3907 1528.4559,828.9637 1528.5989,827.3307"
         class="landxx mz" />
      <path
         style="fill:#f8f9f6;fill-opacity:1"
         id="path7331"
         d="M 1600.8089,838.8507 C 1601.0489,838.6837 1601.2879,838.5177 1601.5289,838.3507 C 1601.5329,838.7707 1601.4639,839.1777 1601.3189,839.5717 C 1601.1489,839.3307 1600.9789,839.0907 1600.8089,838.8507" />
    </g>
    <path
       style="fill:#f8f9f6;fill-opacity:1;stroke:#ffffff;stroke-width:1.75000000000000000;stroke-miterlimit:3.97446822999999982;stroke-dasharray:none;stroke-opacity:1;opacity:1"
       id="path7611"
       d="M 1454.7701,1344.8432 C 1458.4731,1344.2657 1461.3991,1341.0037 1465.3576,1341.7072 C 1468.7281,1342.3057 1471.7766,1344.8642 1475.3466,1344.1817 C 1482.7841,1342.7607 1487.8801,1334.0877 1496.3501,1336.3977 C 1503.0946,1338.2387 1506.6828,1345.8211 1513.4525,1348.0695 C 1517.2934,1349.3449 1529.122,1348.8493 1535.4066,1348.9032 C 1564.1598,1349.1489 1592.955,1349.7229 1621.6711,1348.5672 C 1629.271,1348.2606 1631.8456,1347.7055 1635.4331,1354.4122 C 1639.9992,1362.9487 1646.8326,1361.0629 1655.0366,1361.9652 C 1665.7921,1363.1468 1677.2406,1362.6554 1687.315,1366.1897 C 1691.1881,1367.5484 1694.6727,1368.0405 1698.095,1365.9657 C 1701.1197,1364.1324 1704.0037,1364.7897 1708.3738,1365.8579 C 1712.7922,1366.938 1715.4102,1366.2058 1718.3502,1365.5233 C 1736.294,1361.3597 1756.5821,1357.1485 1775.6011,1353.5512 C 1779.2866,1352.854 1783.0246,1351.1642 1786.8501,1351.7487 C 1789.1111,1352.0952 1792.5341,1354.2722 1794.7776,1353.1522 C 1801.9281,1349.5822 1805.2335,1357.1359 1809.9515,1360.3769 C 1806.5075,1359.4809 1802.5091,1361.4892 1799.2436,1362.7597 C 1795.1836,1364.3382 1793.9901,1370.3967 1790.0981,1366.8162 C 1783.8331,1361.0552 1771.5901,1379.9307 1766.9771,1382.1497 C 1764.7301,1377.8237 1762.3081,1368.1917 1755.9031,1367.5862 C 1747.6536,1366.8057 1737.3776,1370.9707 1729.3381,1372.6752 C 1719.8776,1374.6807 1708.6944,1375.0657 1699.2724,1376.8227 L 1695.7934,1488.4713 L 1671.9955,1488.1262 L 1666.8267,1678.459 C 1667.4182,1687.1565 1659.9856,1683.4948 1655.8423,1687.4372 C 1653.7969,1689.3839 1653.9453,1691.2802 1649.8615,1692.6879 C 1647.072,1693.6497 1645.7756,1694.8215 1648.0506,1697.3975 C 1641.7681,1699.256 1642.0691,1696.8977 1636.2262,1696.0346 C 1630.0872,1695.1281 1624.8449,1698.4454 1617.5796,1696.883 C 1606.0807,1694.4106 1599.2613,1690.1714 1598.7335,1688.042 C 1597.2796,1682.1767 1598.6257,1684.6015 1598.863,1679.9381 C 1598.646,1678.0957 1596.637,1678.5773 1595.2384,1677.1234 C 1593.2427,1675.0493 1591.5032,1670.6239 1589.3906,1671.963 C 1582.735,1676.1833 1584.5739,1682.449 1582.2506,1684.2655 C 1578.9487,1686.8478 1574.8061,1690.2309 1571.3586,1685.893 C 1566.8037,1680.1621 1560.7151,1675.5855 1556.6516,1669.4675 C 1553.0396,1664.025 1550.1591,1658.1562 1547.2471,1652.3217 C 1545.7001,1649.2242 1545.5566,1645.8922 1545.0176,1642.5497 C 1544.4611,1639.0987 1542.1126,1637.2997 1541.4371,1634.1567 C 1540.1946,1628.3922 1542.7671,1626.2747 1538.5006,1620.9617 C 1536.7961,1618.8407 1537.3666,1617.4722 1537.4261,1614.7632 C 1537.5276,1610.3847 1536.0086,1606.5942 1535.5361,1602.3242 C 1535.2001,1599.2827 1535.4626,1596.2027 1534.5911,1593.2277 C 1533.3626,1589.0207 1535.4661,1584.9502 1534.6471,1580.7432 C 1533.2366,1573.4912 1529.7891,1566.8727 1527.1571,1560.0302 C 1524.1856,1552.3057 1526.4081,1545.7852 1525.6311,1537.9662 C 1525.1061,1532.6602 1524.3333,1526.0172 1524.8121,1523.2767 C 1525.0368,1521.9922 1528.2561,1509.1052 1526.8456,1509.4167 C 1526.5096,1502.4762 1523.0061,1495.6792 1519.0686,1490.1107 C 1516.8531,1486.9782 1514.3226,1484.0592 1512.4606,1480.6852 C 1510.7526,1477.5842 1510.3991,1473.7902 1508.1626,1470.9657 C 1497.8551,1457.9492 1495.6431,1442.1467 1488.0306,1428.0417 C 1481.0481,1415.1127 1478.7031,1397.3537 1467.3561,1387.1827 C 1455.1446,1376.2452 1453.7166,1360.2747 1454.7701,1344.8432"
       class="landxx na" />
    <path
       style="fill:#f8f9f6;fill-opacity:1;stroke:#ffffff;stroke-width:1.75000000000000000;stroke-miterlimit:3.97446822999999982;stroke-dasharray:none;stroke-opacity:1;opacity:1"
       id="path7651"
       d="M 1845.8601,1720.0782 C 1849.2026,1723.3787 1848.9051,1728.1352 1851.6106,1731.5442 C 1853.9451,1734.4912 1853.1471,1738.3937 1855.6041,1740.8227 C 1858.6841,1743.8747 1866.7201,1754.1577 1872.0471,1749.8387 C 1874.3781,1747.9452 1876.3486,1741.6347 1877.9866,1738.8977 C 1880.5731,1734.5682 1884.9656,1735.4397 1889.1726,1734.2637 C 1892.2351,1733.4062 1898.7871,1730.8407 1900.0926,1727.6102 C 1901.7551,1723.4872 1901.9406,1721.1282 1904.8701,1717.4882 C 1905.9761,1716.1127 1909.5006,1712.3852 1908.9091,1710.3622 C 1907.0681,1703.9957 1904.4116,1703.5897 1900.1906,1699.1762 C 1896.8901,1695.7217 1893.3726,1692.4982 1890.1106,1689.0227 C 1887.2861,1686.0197 1882.4526,1690.7657 1879.8766,1691.8717 C 1877.0311,1693.0932 1875.6696,1694.4197 1872.8801,1695.9562 C 1869.6111,1697.7552 1866.2126,1697.1077 1863.6086,1700.4572 C 1860.8016,1704.0657 1859.4051,1708.5317 1856.8991,1712.3327 C 1854.0221,1716.6867 1849.8291,1717.1942 1845.8601,1720.0782"
       class="landxx ls" />
    <path
       style="fill:#f8f9f6;fill-opacity:1;stroke:#ffffff;stroke-width:1.75000000000000000;stroke-miterlimit:3.97446822999999982;stroke-dasharray:none;stroke-opacity:1;opacity:1"
       id="path7761"
       d="M 1811.0701,1361.7482 C 1814.4616,1362.5392 1817.8041,1363.2602 1821.2061,1362.0107 C 1824.5136,1360.7962 1826.1166,1365.7277 1828.2411,1367.0962 C 1830.5826,1368.6047 1834.6174,1364.9052 1836.8819,1364.5552 C 1839.8044,1364.1037 1844.1766,1367.3979 1846.7071,1368.4829 C 1854.0606,1371.6329 1858.4741,1364.9255 1862.4326,1359.5852 C 1867.7176,1352.4557 1872.9466,1345.7798 1876.7196,1339.4287 C 1878.5382,1336.3676 1881.054,1335.1496 1883.7721,1333.0125 C 1887.459,1330.1131 1891.5176,1328.2966 1895.9451,1326.4542 C 1904.5684,1322.8653 1906.1371,1321.8342 1906.6411,1312.0447 C 1906.8861,1307.2462 1914.9221,1301.3137 1919.2691,1299.5917 C 1923.3466,1297.9782 1928.3236,1295.7592 1932.7126,1295.5912 C 1938.0291,1295.3847 1943.3911,1297.0682 1948.6656,1295.7312 C 1948.6656,1305.7517 1947.8046,1306.7177 1958.9136,1306.7177 C 1965.8366,1306.7177 1969.7006,1308.4236 1976.5186,1311.1662 C 1980.3182,1312.6943 1989.0787,1317.7966 1992.6494,1319.7104 C 1997.8168,1322.4796 2006.473,1321.2987 2008.5366,1325.6639 C 2010.0591,1328.8832 2012.6841,1329.1212 2015.7291,1328.2147 C 2014.9416,1332.8697 2012.2011,1335.5402 2014.3851,1340.3422 C 2016.9471,1345.9842 2013.7761,1350.1212 2015.5191,1355.4097 C 2017.2131,1360.5407 2013.3841,1366.2492 2014.4621,1371.8247 C 2015.2146,1375.6887 2017.5631,1378.8667 2014.1366,1381.9362 C 2011.6306,1384.1797 2013.9231,1389.4297 2012.4461,1390.2662 C 2008.8341,1392.3032 2007.9206,1391.9952 2006.5206,1396.5207 C 2005.9011,1398.5297 2009.2296,1399.2577 2010.2166,1400.1537 C 2011.0531,1400.9167 2010.3496,1403.8882 2010.2096,1404.7492 C 2009.8701,1406.8072 2008.2076,1407.9167 2007.6336,1409.8172 C 2007.1891,1411.2942 2009.4676,1416.7962 2009.9191,1418.4482 C 2010.7591,1418.1087 2011.5956,1417.7692 2012.4391,1417.4332 C 2012.1696,1422.9317 2014.3606,1425.1017 2011.0356,1430.6877 C 2008.3581,1435.1782 2006.6326,1442.6332 2001.6521,1444.9747 C 1996.2061,1447.5332 2000.3746,1451.0017 1999.3491,1455.2367 C 1998.0926,1460.4132 1994.0641,1463.4162 1998.0891,1468.6067 C 1993.9066,1465.5652 1974.9597,1493.5491 1971.4681,1495.7842 C 1968.1732,1497.8933 1966.4918,1502.5518 1965.1044,1502.5189 C 1962.1399,1496.3722 1950.4247,1498.9223 1944.5048,1498.9377 C 1939.3493,1498.9503 1934.6103,1496.9539 1929.8237,1495.3019 C 1918.8687,1491.5205 1915.5185,1494.2176 1914.9263,1493.5085 C 1912.0332,1490.0421 1911.665,1491.748 1908.3491,1489.9287 C 1904.6741,1487.912 1908.3596,1484.6612 1907.1836,1483.1387 C 1901.9126,1476.3137 1882.356,1480.6852 1879.4146,1473.4927 C 1876.5432,1466.4696 1870.9439,1459.7608 1873.3351,1452.7517 C 1876.6223,1443.1169 1871.8896,1440.9112 1862.2541,1442.8852 C 1863.9796,1433.7747 1861.5926,1430.0612 1853.1576,1427.5552 C 1846.4796,1425.5742 1837.5476,1418.1087 1833.7991,1412.2812 C 1828.0801,1403.3982 1828.0031,1392.2892 1821.1641,1383.6652 C 1818.1716,1379.9027 1808.6376,1366.7707 1811.0701,1361.7482"
       class="landxx zw" />
    <path
       style="fill:#f8f9f6;fill-opacity:1;stroke:#ffffff;stroke-width:1.75000000000000000;stroke-miterlimit:3.97446822999999982;stroke-dasharray:none;stroke-opacity:1;opacity:1"
       id="path8069"
       d="M 1947.687,1631.1901 C 1947.687,1631.1901 1948.3352,1631.1782 1948.3352,1631.1782 C 1951.6777,1634.4787 1951.3011,1633.8627 1954.0066,1637.2717 C 1956.3411,1640.2187 1956.6246,1641.5564 1959.0816,1643.9854 C 1962.1616,1647.0374 1968.9243,1651.2815 1974.2513,1646.9625 C 1976.5823,1645.069 1975.4868,1644.9787 1976.9407,1642.1395 L 1980.097,1635.976 L 1984.5882,1635.9879 L 1984.4818,1634.198 C 1979.0589,1612.6009 1985.732,1627.2176 1980.6472,1613.1756 C 1977.8262,1610.1698 1974.2268,1606.8588 1971.6725,1605.7038 L 1963.2452,1605.3664 C 1960.4382,1608.9749 1958.2311,1609.3851 1955.7251,1613.1861 C 1954.2866,1615.3631 1953.7357,1617.0515 1953.0483,1618.5565 C 1952.3609,1620.0615 1949.6715,1629.7481 1947.687,1631.1901 z"
       class="landxx sz" />
  </g>
  <g
     id="g6606"
     transform="translate(21.420213,0)"
     inkscape:export-filename="/Users/craigmj/proj/decc/craigmj/twenty-fifty/public/assets/images/za.png"
     inkscape:export-xdpi="283.62814"
     inkscape:export-ydpi="283.62814">
    <path
       inkscape:connector-curvature="0"
       id="path6600"
       d="m 1957.1197,1876.5339 26.8319,0"
       style="fill:none;stroke:#000000;stroke-width:1.16959858px;stroke-linecap:butt;stroke-linejoin:miter;stroke-opacity:1" />
    <path
       inkscape:connector-curvature="0"
       id="path6602"
       d="m 1957.5252,1874.5843 0,4.0648"
       style="fill:none;stroke:#000000;stroke-width:0.87064838px;stroke-linecap:butt;stroke-linejoin:miter;stroke-opacity:1" />
    <path
       style="fill:none;stroke:#000000;stroke-width:0.87064838px;stroke-linecap:butt;stroke-linejoin:miter;stroke-opacity:1"
       d="m 1983.5397,1874.5843 0,4.0648"
       id="path6604"
       inkscape:connector-curvature="0" />
  </g>
  <text
     xml:space="preserve"
     style="font-size:5.91475201px;font-style:normal;font-weight:normal;line-height:125%;letter-spacing:0px;word-spacing:0px;fill:#000000;fill-opacity:1;stroke:none;font-family:Sans"
     x="1981.6367"
     y="1872.7362"
     id="text6611"
     sodipodi:linespacing="125%"
     inkscape:export-filename="/Users/craigmj/proj/decc/craigmj/twenty-fifty/public/assets/images/za.png"
     inkscape:export-xdpi="283.62814"
     inkscape:export-ydpi="283.62814"><tspan
       sodipodi:role="line"
       x="1981.6367"
       y="1872.7362"
       id="tspan6615">100km</tspan></text>
</svg>
